<?xml version="1.0" standalone="no"?>
<!DOCTYPE svg PUBLIC "-//W3C//DTD SVG 20010904//EN"
 "http://www.w3.org/TR/2001/REC-SVG-20010904/DTD/svg10.dtd">
<svg version="1.0" xmlns="http://www.w3.org/2000/svg"
 width="720.000000pt" height="544.000000pt" viewBox="0 0 720.000000 544.000000"
 preserveAspectRatio="xMidYMid meet">
<metadata>
Created by potrace 1.16, written by Peter Selinger 2001-2019
</metadata>
<g transform="translate(0.000000,544.000000) scale(0.100000,-0.100000)"
fill="#000000" stroke="none">
<path d="M3069 5387 c-116 -79 -209 -159 -207 -175 2 -8 -4 -17 -12 -19 -13
-4 -13 -3 0 6 10 7 11 11 3 11 -15 0 -32 -31 -26 -48 3 -7 1 -18 -5 -25 -6 -8
-6 -35 1 -76 13 -73 5 -84 -63 -96 -37 -6 -65 -33 -72 -67 -2 -7 -7 -16 -13
-20 -16 -11 -10 -263 8 -341 12 -56 12 -67 1 -63 -8 3 -11 0 -7 -10 3 -7 9
-14 14 -14 5 0 2 -14 -6 -31 -9 -17 -14 -36 -12 -42 2 -7 11 2 20 20 9 17 24
38 33 47 16 16 76 94 142 185 44 60 234 244 291 282 64 42 116 43 230 2 53
-19 76 -23 79 -15 10 30 123 62 147 42 11 -9 29 -1 85 37 115 78 196 117 265
126 l30 4 -32 2 c-38 1 -146 -37 -220 -79 -29 -17 -60 -30 -70 -30 -9 0 -71
-18 -137 -41 -109 -37 -124 -40 -158 -30 -21 7 -38 15 -38 19 0 8 94 64 165
100 36 18 172 61 235 75 132 30 433 36 582 13 174 -27 409 -93 568 -161 74
-31 236 -130 360 -219 30 -22 57 -42 59 -43 3 -2 -4 -11 -15 -21 -19 -18 -20
-18 -49 0 -96 58 -298 139 -410 163 -30 6 -30 6 10 -27 85 -70 175 -162 226
-233 50 -70 75 -93 49 -45 -6 12 -10 23 -8 26 2 2 -33 43 -79 91 -45 49 -83
91 -83 96 0 10 100 -41 125 -64 11 -10 46 -30 78 -44 32 -15 61 -34 64 -42 4
-10 17 -2 48 31 77 80 138 105 73 30 l-33 -39 37 28 c44 33 54 34 34 5 -29
-41 -16 -51 15 -12 17 22 37 43 46 47 13 8 13 5 0 -20 -8 -15 -17 -46 -20 -68
l-6 -40 19 40 c11 22 20 45 20 52 0 6 5 15 10 18 14 9 3 -147 -16 -245 -18
-89 -82 -320 -94 -339 -10 -17 -60 -6 -60 13 0 8 13 69 29 137 17 68 28 125
27 127 -4 4 -62 -181 -71 -225 -7 -36 -21 -41 -50 -19 -19 14 -19 16 8 123 15
59 27 113 27 118 -1 15 -26 -45 -56 -135 -14 -44 -30 -82 -34 -85 -5 -3 -20
-1 -34 4 l-25 10 21 73 c11 40 31 100 44 132 13 33 24 62 24 65 -2 17 -80
-153 -95 -207 -17 -55 -21 -61 -39 -56 -37 11 -39 21 -16 96 20 67 114 252
146 289 8 8 14 19 14 23 0 20 -73 -76 -106 -139 -50 -94 -94 -203 -94 -230 0
-28 37 -68 81 -88 127 -56 159 -65 159 -46 0 5 -4 8 -9 5 -5 -3 -11 1 -15 9
-3 10 1 15 13 15 27 0 39 -20 45 -70 5 -44 5 -44 -6 -12 -20 59 -26 33 -7 -35
22 -82 23 -152 4 -348 -8 -82 -17 -186 -19 -230 -5 -78 -5 -77 9 25 20 147 54
471 59 558 3 41 7 76 10 79 14 15 16 -36 7 -153 -6 -71 -13 -163 -15 -204 l-5
-75 13 90 c7 50 19 143 25 209 7 76 17 126 27 140 15 19 16 7 12 -154 -5 -185
5 -174 18 20 4 63 8 122 10 130 1 8 3 47 5 85 l2 70 12 -105 c7 -58 14 -134
15 -170 2 -61 3 -62 10 -25 8 44 6 364 -4 435 -3 25 -2 61 3 80 7 29 9 20 11
-55 1 -49 6 -117 10 -150 44 -301 48 -494 15 -635 -25 -106 -82 -273 -160
-470 -41 -102 -97 -258 -126 -347 -29 -90 -54 -161 -56 -159 -4 4 1 36 28 189
6 34 11 79 10 100 0 21 8 79 19 130 20 93 25 135 14 124 -7 -6 -52 -240 -59
-302 -17 -149 -23 -176 -35 -172 -6 1 -37 -63 -69 -143 -32 -80 -73 -176 -91
-215 -55 -121 -60 -133 -60 -141 0 -4 -8 -16 -17 -27 -18 -19 -17 -19 17 -12
19 4 47 14 62 23 15 9 29 14 31 11 7 -8 -11 -171 -23 -202 -27 -71 -42 -97
-59 -107 -17 -9 -19 -6 -15 33 4 39 3 40 -6 12 -6 -16 -9 -37 -6 -47 4 -19
-45 -68 -86 -86 l-28 -12 -1 48 c-1 26 -4 36 -6 22 -12 -69 -25 -101 -38 -96
-14 5 -22 -17 -54 -140 -25 -95 25 -477 83 -633 l23 -65 11 35 c17 58 20 79
11 79 -5 0 -9 -10 -10 -22 0 -13 -4 -32 -9 -43 -7 -14 -9 -3 -9 40 2 111 9
150 36 181 45 52 91 128 104 171 13 45 7 56 -46 88 -15 9 -14 18 10 108 14 55
35 122 46 149 11 28 17 53 15 56 -8 7 -45 -97 -72 -201 -10 -38 -23 -71 -31
-74 -7 -3 -45 13 -85 35 -74 41 -75 42 -63 97 3 12 29 33 69 54 38 20 97 66
145 113 l82 80 2 73 c1 41 6 77 9 81 4 3 25 -1 48 -10 22 -9 56 -16 76 -16 19
0 36 -6 38 -12 2 -7 12 -41 21 -75 17 -60 17 -62 -2 -90 -24 -34 -39 -60 -29
-52 3 3 22 27 40 53 l33 47 -17 37 c-43 90 -72 330 -60 482 15 172 22 180 36
40 12 -118 52 -316 61 -306 3 3 -2 35 -10 73 -26 111 -47 332 -39 393 8 54 8
54 15 -45 5 -55 16 -143 26 -195 23 -114 27 -96 7 27 -15 92 -28 229 -22 222
2 -2 13 -55 25 -117 11 -63 36 -164 55 -225 19 -62 40 -131 46 -154 6 -24 14
-43 18 -43 4 0 18 14 30 30 13 16 39 47 58 67 19 21 37 48 40 60 4 13 9 23 13
23 11 0 7 -50 -4 -58 -6 -4 -37 -38 -70 -76 -41 -48 -50 -63 -30 -48 40 30
174 167 205 212 l25 35 -33 -23 c-17 -13 -32 -28 -32 -33 0 -5 -5 -9 -11 -9
-7 0 -8 7 -4 18 4 9 8 28 10 42 2 24 14 51 64 145 11 21 21 45 21 52 0 7 6 13
13 13 9 0 8 3 -2 9 -7 5 -11 14 -7 20 4 5 11 61 16 123 5 62 13 133 16 158 l7
45 8 -40 c15 -77 10 -187 -11 -230 -28 -59 -23 -68 6 -12 23 44 25 60 25 155
-1 151 -13 233 -67 438 -26 98 -55 216 -65 261 -10 45 -22 99 -28 120 -14 54
-24 194 -12 168 5 -11 10 -30 10 -42 1 -13 6 -23 11 -23 6 0 15 -12 21 -27 6
-15 25 -59 43 -98 18 -38 43 -97 55 -130 13 -33 32 -81 42 -107 10 -26 19 -57
19 -70 0 -13 5 -29 12 -36 15 -15 18 -284 4 -351 -6 -30 -6 -42 1 -38 6 4 0
-28 -13 -70 -14 -42 -23 -81 -20 -87 3 -7 5 -7 5 1 1 7 14 41 30 75 45 101 61
181 67 338 4 103 2 170 -9 233 -11 70 -12 85 -1 76 7 -6 10 -18 7 -26 -5 -12
-3 -14 6 -8 8 4 17 2 22 -6 5 -8 9 -9 9 -3 0 6 -9 23 -20 37 -11 14 -20 30
-20 36 0 6 -4 11 -9 11 -5 0 -11 8 -15 18 -3 9 -31 53 -61 97 -30 44 -59 87
-65 95 -22 33 -89 151 -114 202 -22 46 -27 74 -36 208 -5 85 -12 180 -15 210
-5 48 -4 52 7 30 62 -130 118 -254 118 -261 0 -5 5 -9 10 -9 6 0 10 -8 11 -17
0 -10 3 -13 5 -8 2 6 -15 65 -40 130 -24 66 -60 179 -81 250 -21 72 -41 135
-46 140 -4 6 -11 52 -15 103 -5 68 -11 96 -25 111 -23 24 -24 31 -4 31 8 0 17
-11 21 -25 6 -24 24 -35 24 -15 0 12 37 13 42 1 2 -4 37 -11 78 -15 46 -4 69
-3 60 3 -25 14 -151 43 -166 37 -8 -3 -14 0 -14 5 0 11 33 10 175 -6 30 -3 23
0 -25 14 l-65 17 51 7 c28 4 58 5 65 3 8 -2 28 -7 46 -10 25 -4 31 -2 27 9 -3
8 -9 14 -12 13 -4 0 -54 1 -112 2 -69 1 -97 5 -80 10 14 4 21 8 17 9 -8 1 29
70 44 81 3 3 9 15 13 28 4 12 14 22 22 22 20 0 17 28 -3 32 -16 3 -16 4 -2 10
12 5 23 -7 44 -45 20 -39 25 -44 21 -22 -4 17 -16 42 -26 57 -11 15 -20 32
-20 37 0 5 -6 16 -13 23 -7 7 -28 34 -47 61 -25 35 -38 46 -51 42 -24 -8 -85
48 -101 92 -10 28 -16 33 -35 29 -16 -5 -23 -1 -28 13 -3 11 -19 22 -35 26
-15 3 -31 13 -34 21 -3 8 -10 14 -16 14 -10 0 -50 36 -50 46 0 3 10 2 23 -1
12 -4 -3 12 -33 34 l-55 41 -859 -1 -860 0 -45 -22 -46 -21 42 -4 c23 -2 51 2
62 8 17 8 19 8 15 -4 -8 -21 -63 -30 -122 -21 -43 7 -45 8 -27 21 67 45 71 43
-85 43 l-145 1 -76 -53z m2532 -2162 c5 -22 13 -68 18 -102 5 -34 12 -66 16
-72 3 -6 2 -11 -4 -11 -16 0 -66 82 -96 157 -29 75 -29 100 -4 195 l13 46 24
-86 c13 -48 28 -105 33 -127z m-77 -42 c15 -44 42 -97 61 -122 35 -44 39 -51
30 -51 -12 0 -133 131 -162 176 -18 26 -33 42 -33 34 0 -8 9 -26 20 -40 24
-31 27 -112 5 -164 -8 -20 -12 -36 -7 -36 10 0 42 75 42 100 0 11 2 20 5 20
12 0 45 -41 40 -50 -3 -5 0 -12 6 -16 8 -4 9 -3 5 4 -14 22 14 12 36 -13 12
-14 30 -25 39 -25 10 0 21 -5 25 -12 4 -6 9 -74 12 -151 5 -187 -10 -262 -88
-429 -15 -31 -34 -27 -24 5 14 47 -7 7 -31 -59 -15 -38 -42 -97 -60 -131 -19
-35 -32 -69 -29 -77 3 -8 0 -24 -6 -36 l-12 -22 -14 27 c-16 32 -18 69 -4 94
21 40 51 185 66 326 20 183 29 473 13 435 -6 -14 -9 -64 -6 -117 2 -51 1 -93
-4 -93 -10 0 -16 23 -25 95 -11 101 -11 101 -89 29 -38 -35 -66 -66 -62 -70 4
-4 18 3 32 16 20 19 25 20 25 7 0 -9 -4 -19 -10 -22 -5 -3 -10 -18 -9 -33 0
-15 3 -21 6 -14 7 19 20 14 28 -10 20 -62 33 -137 29 -168 -3 -25 -2 -29 4
-15 7 15 10 9 15 -29 11 -81 8 -173 -9 -249 -23 -102 -31 -112 -40 -50 -3 29
-13 58 -20 64 -8 6 -14 20 -14 31 0 11 -9 54 -20 96 -27 108 -34 196 -30 373
1 52 49 196 115 344 31 70 85 214 85 227 0 8 3 18 7 22 4 4 13 -26 19 -68 7
-41 24 -110 38 -153z m-384 -599 c-14 -146 -12 -357 5 -459 19 -114 19 -115
-2 -115 -24 0 -103 33 -103 43 0 5 15 6 33 2 17 -3 28 -3 22 2 -5 4 -11 17
-13 28 -2 16 -1 17 7 5 14 -21 23 -7 26 42 1 24 0 28 -2 11 -6 -48 -19 -40
-16 10 2 41 2 40 -18 -20 -11 -35 -24 -63 -29 -63 -7 0 -7 6 0 18 24 42 53
241 56 390 3 114 8 161 20 183 8 17 17 29 20 27 2 -3 -1 -49 -6 -104z"/>
<path d="M3860 4981 c-113 -31 -187 -81 -99 -67 24 4 46 11 47 16 2 6 17 10
33 10 18 0 28 4 24 10 -3 6 3 10 14 10 12 0 21 -5 21 -11 0 -6 6 -9 14 -6 8 3
27 2 43 -3 22 -6 12 -9 -47 -10 l-75 -3 95 -12 c140 -19 208 -40 312 -96 101
-55 130 -77 122 -90 -3 -5 2 -6 11 -3 9 4 15 3 13 -2 -4 -13 32 -63 54 -75 36
-19 3 25 -91 123 -126 132 -292 228 -391 227 -19 0 -64 -8 -100 -18z"/>
<path d="M3245 4829 c-92 -22 -224 -203 -309 -424 -15 -38 -31 -79 -36 -90
-10 -22 -44 -149 -54 -204 -11 -61 8 -22 26 52 11 44 16 57 15 35 -2 -21 1
-38 5 -38 4 0 9 26 10 58 1 50 2 52 5 14 5 -49 23 -47 23 3 0 19 5 37 10 40 6
3 10 16 10 29 0 12 4 26 9 32 4 5 14 30 21 57 23 84 130 252 199 313 34 30 66
54 71 54 5 0 15 7 23 15 8 7 27 17 42 21 l27 7 -20 -39 c-34 -67 -105 -287
-119 -369 -9 -57 -13 -160 -4 -140 5 12 10 -36 14 -127 4 -81 12 -159 18 -175
6 -15 13 -53 15 -83 11 -119 13 -131 22 -107 4 10 8 -7 9 -40 1 -32 7 -71 12
-88 9 -28 10 -27 9 16 -1 25 2 50 5 56 4 7 -4 51 -18 100 -44 149 -67 321 -64
468 3 141 11 192 54 330 32 106 42 127 90 189 l35 46 -58 -1 c-31 -1 -75 -5
-97 -10z"/>
<path d="M3783 4650 c4 -13 41 -109 68 -175 45 -115 71 -451 49 -644 -5 -49
-6 -89 -1 -95 5 -6 11 -22 13 -36 4 -33 12 223 11 380 0 76 2 108 7 83 3 -24
10 -46 14 -50 14 -13 -5 91 -18 107 -7 8 -18 54 -25 102 -13 94 -67 260 -102
312 -11 17 -19 24 -16 16z"/>
<path d="M2589 4226 c-9 -20 -22 -26 -63 -31 -53 -7 -166 -61 -201 -97 -15
-14 -1 -10 50 15 67 33 175 71 182 63 9 -9 -11 -35 -31 -40 -34 -8 -107 -51
-146 -86 -33 -29 -29 -28 52 14 88 47 108 54 108 36 0 -14 -25 -34 -96 -81
-34 -21 -64 -46 -67 -54 -8 -19 14 -11 78 30 28 17 57 34 66 37 10 4 20 28 27
62 6 30 23 78 37 105 14 28 23 51 20 51 -3 0 -10 -11 -16 -24z"/>
<path d="M4063 4145 c9 -31 27 -192 30 -270 2 -38 7 -71 13 -73 5 -1 30 2 56
8 26 7 51 9 56 6 10 -6 50 -113 76 -201 9 -33 14 -42 15 -25 1 41 -27 147 -70
265 -71 192 -78 210 -78 195 0 -17 30 -108 43 -130 5 -8 -1 -6 -13 5 l-23 20
16 -39 c9 -22 15 -40 14 -41 -7 -5 -72 -25 -83 -25 -7 0 -12 34 -13 105 -1 58
0 105 3 105 2 0 16 -21 29 -47 14 -27 25 -44 26 -40 0 4 -13 33 -29 65 -15 31
-32 68 -36 82 -4 13 -14 31 -23 39 -13 13 -14 13 -9 -4z"/>
<path d="M5990 4155 c0 -5 7 -77 14 -160 14 -147 15 -151 58 -227 23 -43 46
-78 51 -78 15 0 6 41 -18 82 -35 59 -62 117 -71 153 -9 39 -3 32 35 -38 48
-89 80 -137 92 -137 6 0 -8 35 -32 78 -68 125 -109 211 -108 230 0 9 11 -5 25
-33 13 -27 35 -65 48 -85 12 -19 31 -48 42 -64 10 -16 24 -36 29 -44 6 -9 21
-27 34 -41 l24 -26 -17 28 c-35 58 -78 135 -131 237 -59 114 -75 140 -75 125z"/>
<path d="M4733 4100 c2 -14 13 -59 25 -100 38 -144 38 -133 -4 -126 -28 6 -35
4 -32 -6 3 -7 16 -12 30 -10 14 1 30 -3 35 -10 14 -17 33 -186 33 -290 l0 -83
-41 -2 c-33 -2 -40 0 -35 12 7 19 -7 19 -45 0 -16 -9 -67 -20 -112 -25 -45 -5
-106 -15 -135 -22 -47 -10 -56 -16 -73 -49 -25 -49 -35 -55 -46 -23 l-9 26
-40 -33 c-40 -34 -116 -120 -110 -126 1 -2 16 3 32 11 64 31 68 30 87 -22 25
-70 32 -78 51 -63 10 8 35 12 66 9 27 -1 50 0 50 5 0 13 40 8 64 -8 22 -15 25
-14 44 9 13 17 28 25 48 24 16 0 54 8 84 20 52 19 55 23 62 63 4 24 6 45 3 47
-2 3 -18 -1 -34 -7 -41 -18 -75 -11 -79 16 -4 29 27 37 132 34 l39 -1 -6 -62
c-3 -35 -9 -74 -13 -87 -13 -43 12 -14 31 36 10 26 30 78 46 115 29 67 37 104
19 93 -5 -3 -20 -3 -33 0 -22 6 -23 11 -36 173 -15 196 -57 416 -91 469 -10
16 -11 15 -7 -7z"/>
<path d="M2483 3860 c-18 -16 -33 -33 -33 -38 0 -4 -13 -16 -30 -25 -16 -10
-30 -23 -30 -28 0 -6 6 -7 13 -3 6 4 3 -2 -7 -14 -11 -12 -24 -22 -31 -22 -6
0 -18 -11 -25 -25 -7 -13 -18 -21 -23 -18 -6 4 -8 0 -4 -11 4 -11 3 -15 -4
-11 -5 4 -15 -7 -22 -25 -9 -24 -16 -30 -33 -26 -16 4 -24 -2 -37 -30 -24 -50
-21 -53 13 -15 24 26 33 31 45 21 10 -9 19 -9 35 0 25 13 25 14 -24 -58 -16
-23 -27 -45 -24 -48 3 -3 32 32 64 78 31 46 66 93 77 106 41 45 35 20 -15 -60
-54 -89 -86 -154 -69 -143 6 3 11 10 11 16 0 5 10 20 23 34 21 25 59 88 113
189 14 27 32 56 40 64 11 11 22 123 12 122 -2 0 -18 -14 -35 -30z"/>
<path d="M3056 3803 c6 -103 28 -261 54 -388 18 -91 60 -239 65 -233 2 2 0 35
-5 73 -5 38 -7 71 -5 73 2 2 13 -13 25 -35 23 -42 21 -35 -21 78 -48 129 -99
378 -99 482 0 20 -4 37 -10 37 -5 0 -7 -35 -4 -87z"/>
<path d="M2491 3703 c-39 -107 -138 -282 -199 -354 -12 -13 -30 -35 -42 -49
-44 -51 -104 -112 -135 -136 -34 -26 -267 -143 -345 -174 -63 -25 -121 -51
-267 -121 -68 -33 -126 -59 -129 -59 -4 0 -29 -14 -56 -30 -27 -17 -62 -32
-78 -34 -16 -2 -36 -10 -45 -19 -18 -19 -46 -24 -171 -32 -102 -6 -405 -54
-502 -79 -83 -22 -196 -67 -316 -127 -54 -27 -104 -49 -110 -49 -13 0 -79 -70
-72 -77 2 -2 35 16 72 40 187 121 385 194 619 228 38 6 99 15 135 21 150 23
266 35 273 28 5 -4 -9 -18 -30 -31 -63 -38 -255 -183 -316 -239 -80 -73 -167
-182 -230 -285 -40 -67 -146 -294 -162 -345 -38 -128 -25 -314 39 -553 25 -97
31 -109 31 -66 0 16 -2 29 -5 29 -3 0 -6 13 -7 28 -2 33 -7 60 -22 122 -49
210 -50 292 -6 444 64 221 250 504 440 668 54 47 47 32 -28 -51 -26 -29 -69
-81 -94 -115 -26 -33 -51 -65 -56 -71 -49 -60 -157 -255 -193 -350 -53 -140
-67 -212 -61 -315 3 -52 10 -106 16 -120 l12 -25 -6 25 c-20 98 -17 178 10
285 77 308 268 589 598 875 58 50 44 26 -26 -43 -161 -159 -321 -360 -386
-484 -22 -42 -10 -37 16 7 31 51 111 165 145 206 71 85 268 284 323 325 l30
23 -20 -23 c-11 -13 -37 -40 -57 -61 -46 -46 -51 -76 -6 -34 l32 29 -29 -36
c-203 -245 -381 -513 -472 -707 -50 -107 -77 -202 -67 -235 13 -42 103 -253
157 -367 30 -63 71 -167 92 -230 36 -108 54 -140 79 -140 7 0 8 3 1 8 -5 4
-18 32 -28 62 -52 156 -66 189 -214 505 -85 181 -86 190 -38 310 44 112 173
342 218 393 11 12 17 22 14 22 -23 0 295 402 415 525 44 45 44 45 231 24 159
-17 184 -12 313 66 60 37 113 71 118 76 6 5 19 9 31 9 13 0 27 13 40 37 11 20
29 45 39 55 11 10 16 18 10 18 -5 0 -4 4 1 8 20 14 85 96 85 106 0 6 -22 -13
-50 -43 -51 -55 -63 -55 -34 0 8 17 14 33 11 35 -2 2 -41 -32 -88 -77 -108
-103 -170 -135 -259 -132 -97 3 -173 14 -164 23 5 5 102 50 216 100 114 50
228 102 253 116 25 13 51 24 56 24 5 0 15 5 22 10 7 6 36 26 65 46 29 19 61
43 71 53 10 10 23 20 28 22 5 2 32 38 60 79 28 41 72 102 97 135 25 33 46 67
46 76 0 8 4 19 10 25 5 5 21 32 35 59 24 48 25 49 25 19 0 -49 -21 -196 -33
-224 -5 -14 -12 -41 -14 -60 -7 -60 -40 -193 -62 -249 -20 -54 -21 -87 -1 -40
l10 24 -4 -25 c-15 -80 -18 -110 -9 -110 6 0 13 26 17 57 4 32 15 91 26 133
10 41 33 145 51 230 43 208 50 466 10 353z"/>
<path d="M6200 3577 c0 -18 123 -136 180 -173 25 -15 78 -52 117 -81 40 -29
75 -53 78 -53 3 0 27 -17 54 -37 27 -21 61 -47 77 -58 71 -51 161 -128 176
-153 12 -18 18 -47 18 -84 0 -51 -7 -71 -56 -165 -31 -59 -114 -193 -184 -298
-143 -212 -173 -274 -198 -408 -19 -103 -15 -100 -109 -79 l-51 11 -97 -50
-96 -51 40 -20 c47 -23 71 -52 140 -173 79 -137 108 -248 142 -535 l18 -155
-5 115 c-5 109 -17 230 -30 288 -4 19 0 15 14 -13 l19 -40 5 30 c7 32 -10 125
-23 125 -4 0 -10 21 -14 48 -6 38 -9 43 -16 27 -6 -15 -8 -8 -8 25 1 61 -12
134 -25 142 -6 4 -7 10 -3 14 4 4 15 -2 25 -14 11 -12 23 -18 27 -14 4 4 5 -3
2 -16 -3 -12 -1 -20 4 -17 8 5 69 -51 69 -64 0 -4 23 -31 50 -61 49 -53 50
-54 28 -15 -12 22 -25 42 -28 45 -4 3 -10 13 -13 24 -8 20 -11 20 79 -1 19 -4
21 -2 16 24 -6 26 -7 26 -10 5 -3 -18 -8 -22 -25 -16 -12 3 -23 7 -24 8 -1 1
-6 35 -11 76 l-9 75 -2 -67 c-1 -61 -3 -68 -21 -68 -18 0 -20 7 -21 83 -1 91
-4 92 -14 2 -6 -54 -8 -58 -21 -40 -18 24 -19 121 -1 128 6 3 -6 5 -28 5 -22
0 -32 -2 -22 -5 12 -3 17 -15 17 -41 l0 -36 -29 34 c-17 21 -25 38 -19 41 6 4
-9 10 -33 14 l-44 8 30 9 c17 4 76 11 133 15 104 6 127 13 53 16 -39 2 -57 17
-30 26 6 2 9 0 6 -5 -3 -5 20 -9 51 -9 32 -1 49 1 40 3 -10 2 -18 8 -18 13 0
6 -9 7 -20 4 -13 -4 -22 -1 -26 9 -10 27 38 240 67 299 11 20 17 37 14 37 -21
0 -75 -165 -90 -278 -6 -42 -10 -52 -24 -50 -21 5 -18 77 9 176 27 98 50 140
178 333 130 197 214 338 237 400 13 36 14 54 7 83 -11 39 -2 55 18 31 25 -30
5 -118 -46 -213 -26 -48 -54 -98 -63 -112 -9 -13 -11 -21 -5 -17 17 10 90 137
114 196 11 28 20 65 20 81 0 32 16 41 22 13 10 -47 -24 -146 -85 -246 -35 -58
-31 -74 5 -19 44 65 78 140 92 200 12 51 14 54 21 30 11 -44 -41 -198 -101
-293 -35 -57 -49 -89 -34 -80 6 3 10 13 10 21 0 8 4 14 8 14 14 0 102 183 115
238 14 60 28 70 20 15 -16 -118 -106 -330 -234 -553 -62 -109 -95 -198 -104
-283 -7 -66 -7 -68 -33 -65 -18 2 -28 11 -33 28 -4 14 -7 18 -8 8 -1 -9 -8
-24 -17 -32 -14 -15 -13 -16 14 -16 16 0 42 -3 58 -6 l29 -6 3 58 c7 117 47
226 131 353 39 58 138 263 172 353 22 60 33 107 36 168 l5 85 -62 55 c-35 30
-74 67 -89 81 -42 42 -117 99 -266 204 -222 156 -320 232 -374 290 -52 58 -61
64 -61 42z"/>
<path d="M5075 3228 c-18 -50 -78 -173 -95 -193 -12 -14 -43 -166 -36 -173 3
-3 6 6 6 19 0 20 2 21 11 9 8 -12 9 -10 4 8 -6 22 33 137 43 127 12 -12 31 19
26 41 -4 15 -2 24 5 24 6 0 11 8 12 18 0 9 9 35 19 57 l19 40 0 -88 c1 -96
-20 -218 -49 -285 -11 -23 -14 -40 -9 -36 17 10 47 88 62 163 8 38 18 75 22
82 5 7 4 10 -3 6 -7 -5 -10 30 -11 109 0 64 -2 118 -4 120 -2 2 -12 -20 -22
-48z"/>
<path d="M2965 3200 c10 -121 14 -136 53 -217 13 -29 22 -60 18 -68 -3 -8 -1
-15 4 -15 5 0 24 -21 41 -47 28 -41 102 -135 132 -168 5 -5 4 1 -3 15 -7 14
-16 27 -19 30 -3 3 -14 22 -24 43 l-17 38 22 -12 c13 -6 31 -18 41 -27 27 -24
20 -9 -18 39 -36 46 -42 68 -25 100 12 21 30 26 30 7 0 -7 13 -27 28 -45 l27
-31 74 7 c43 4 76 12 79 19 3 9 11 8 32 -3 39 -20 47 -19 54 10 7 27 36 35 36
9 0 -8 5 -12 10 -9 6 3 10 15 10 25 0 12 10 21 30 25 31 7 35 19 24 63 -7 25
-30 24 -28 -2 1 -9 -2 -16 -7 -16 -5 0 -9 5 -9 10 0 6 -13 10 -30 10 -23 0
-30 5 -30 19 0 22 19 31 66 31 61 0 42 16 -74 61 -13 5 -48 9 -79 9 -42 0 -54
-3 -50 -14 6 -14 -15 -15 -45 -2 -10 5 -39 1 -68 -9 -42 -14 -50 -21 -50 -41
0 -31 -15 -31 -36 1 -9 14 -20 22 -26 19 -5 -4 -5 -11 1 -18 13 -15 -10 -39
-46 -50 -26 -8 -39 14 -95 164 l-39 105 6 -65z"/>
<path d="M2854 3205 c3 -11 12 -68 21 -128 25 -166 99 -373 181 -507 24 -39
24 -42 6 -26 -35 31 -28 -4 11 -56 46 -60 53 -73 36 -63 -41 25 -118 88 -149
121 -50 55 -71 87 -117 184 -81 170 -84 177 -78 145 4 -16 15 -47 24 -70 10
-22 25 -58 32 -80 8 -22 17 -42 20 -45 3 -3 14 -27 24 -53 10 -26 35 -67 57
-90 21 -23 38 -45 38 -50 0 -16 74 -163 98 -195 36 -48 39 -31 4 20 -40 56
-61 126 -42 138 17 10 92 -41 76 -53 -6 -5 -1 -6 11 -2 13 3 28 3 35 -1 7 -5
24 -7 38 -6 14 2 34 -3 44 -11 20 -14 20 -16 1 -98 -48 -219 -105 -305 -326
-486 -35 -29 -75 -62 -89 -74 l-25 -21 30 18 c17 10 41 24 55 31 14 7 21 13
17 13 -5 0 6 12 23 26 24 21 34 24 43 15 9 -9 8 -11 -4 -6 -10 4 -19 0 -22 -8
-4 -10 2 -15 19 -15 19 0 43 21 99 86 41 47 72 89 69 93 -2 4 1 11 8 16 7 4
23 26 35 48 13 22 27 39 33 38 5 -2 10 3 10 10 0 7 18 48 40 91 45 87 46 87
26 -4 -45 -216 -135 -385 -318 -601 -42 -49 -55 -58 -125 -81 -43 -15 -96 -29
-118 -33 -51 -8 -206 11 -252 30 -34 15 -36 14 -124 -37 -68 -40 -94 -61 -108
-89 l-19 -37 28 15 c49 24 94 27 113 8 16 -16 22 -15 90 11 78 30 147 35 197
14 36 -15 37 -20 7 -43 -13 -10 -41 -33 -63 -53 -43 -39 -134 -104 -202 -145
l-44 -26 67 -8 c37 -4 64 -9 62 -11 -3 -3 -72 -9 -153 -14 -129 -8 -162 -14
-246 -43 -54 -18 -100 -36 -103 -39 -3 -2 20 -13 50 -23 30 -11 55 -22 55 -26
0 -3 -19 -19 -42 -34 -155 -100 -468 -358 -454 -373 3 -3 24 14 47 37 46 46
175 148 254 201 28 19 52 36 55 40 7 8 89 50 98 50 4 0 -1 -5 -11 -11 -10 -6
-22 -22 -27 -35 -5 -13 -15 -23 -22 -22 -7 2 -14 -7 -16 -18 -2 -12 -12 -30
-23 -40 -20 -18 -26 -44 -9 -44 5 0 7 -7 3 -15 -3 -9 19 10 48 40 64 67 137
114 148 96 6 -9 12 -7 22 5 57 70 337 194 437 194 36 0 20 -13 -57 -45 -65
-28 -88 -45 -59 -45 7 0 6 -6 -4 -17 -9 -10 -21 -28 -27 -41 -19 -36 6 -26 31
13 13 19 30 35 38 36 10 0 9 3 -4 8 -16 6 -14 9 15 21 19 7 41 19 49 25 18 14
90 35 116 34 17 0 17 -1 -2 -11 -21 -10 -95 -124 -109 -168 -4 -14 -23 -57
-41 -97 -18 -39 -27 -69 -21 -67 22 9 92 116 89 135 -4 21 14 26 21 7 2 -8 8
-9 13 -4 5 5 4 11 -3 13 -19 7 -16 25 11 56 14 16 27 24 31 18 3 -6 -3 -21
-14 -33 -24 -25 -18 -40 6 -15 9 9 18 32 19 51 4 43 20 76 38 76 16 0 33 18
38 40 3 16 18 30 31 30 13 0 -29 -73 -62 -107 -30 -32 -28 -48 3 -18 8 8 18
15 23 15 4 1 23 32 42 70 26 50 44 74 71 89 41 23 135 119 126 128 -3 4 -20
-6 -36 -22 -36 -35 -49 -27 -24 13 76 119 174 239 174 214 0 -25 22 0 46 52
l23 51 1 -120 c1 -66 5 -131 9 -145 4 -14 5 25 3 85 -6 150 7 213 53 261 20
20 34 42 32 48 -3 6 2 17 10 25 13 12 14 10 8 -20 -7 -30 -6 -32 8 -21 9 8 14
19 11 27 -3 7 2 28 11 45 12 23 13 30 3 24 -7 -5 -22 -8 -33 -9 -13 0 -27 -15
-42 -47 -13 -27 -25 -48 -27 -48 -10 0 18 76 41 111 29 44 35 46 231 48 171 3
298 -8 263 -21 -13 -5 -21 -11 -18 -14 3 -4 49 17 102 46 53 28 99 49 102 47
2 -3 -3 -29 -11 -58 -18 -60 -22 -189 -5 -189 5 0 8 4 5 9 -4 5 -1 22 4 37 7
17 7 30 1 33 -6 4 -5 27 1 61 13 74 21 78 16 7 -2 -40 1 -57 9 -57 7 0 10 6 7
13 -3 8 -1 31 4 53 6 27 4 47 -5 64 -7 14 -17 48 -23 77 -11 52 -11 52 -53 55
-37 3 -42 6 -45 30 -2 18 -12 29 -30 37 -15 5 -81 31 -147 56 -158 60 -178 71
-239 130 -53 52 -84 106 -118 210 -32 96 -135 286 -183 337 -24 26 -60 69 -79
95 -40 57 -106 185 -106 207 0 9 -4 16 -10 16 -5 0 -10 8 -10 19 0 16 -26 90
-51 146 l-9 20 4 -20z m543 -1055 c3 -10 15 -22 27 -26 11 -4 32 -15 46 -26
l25 -20 -30 7 c-22 5 -26 4 -15 -4 12 -8 12 -13 2 -23 -6 -6 -12 -20 -12 -30
0 -17 -24 -64 -59 -118 -32 -50 -41 -65 -51 -87 -5 -13 -14 -23 -20 -23 -5 0
-9 -6 -7 -12 1 -7 -6 -12 -15 -12 -10 1 -15 -2 -12 -7 4 -8 -8 -13 -27 -11 -3
1 -6 -5 -6 -11 0 -22 -35 -67 -52 -67 -13 0 -13 -2 -2 -9 19 -12 5 -31 -23
-31 -13 0 -29 -7 -36 -15 -7 -9 -15 -14 -17 -11 -3 2 22 48 55 103 67 111 124
222 142 279 7 21 16 44 20 49 4 6 13 27 19 48 7 20 17 37 23 37 6 0 8 9 5 20
-3 11 -1 20 5 20 5 0 12 -9 15 -20z"/>
<path d="M2492 3085 c-38 -227 -52 -330 -57 -430 -6 -113 5 -121 20 -15 7 49
9 53 18 32 8 -18 7 -26 -2 -32 -8 -4 -11 -14 -9 -21 5 -15 58 81 58 106 0 8 5
15 11 15 7 0 8 14 4 43 -4 23 -13 118 -19 212 l-11 169 -13 -79z"/>
<path d="M2339 2953 c-30 -75 -150 -254 -208 -312 -63 -62 -193 -157 -264
-193 -64 -32 -72 -49 -12 -24 49 21 52 20 24 -4 l-24 -21 35 17 c103 49 237
174 385 359 80 100 89 117 93 177 3 32 2 58 -1 58 -2 0 -15 -26 -28 -57z"/>
<path d="M2873 2353 c13 -20 -91 -237 -200 -423 -13 -22 -12 -21 13 5 16 17
40 46 54 65 14 19 36 48 50 64 34 41 55 75 106 168 l42 77 -36 27 c-19 15 -32
23 -29 17z"/>
<path d="M6050 2213 c-14 -13 -64 -49 -112 -81 -49 -31 -88 -61 -88 -65 0 -5
13 1 29 12 16 12 42 21 58 21 l28 -1 -34 -15 c-39 -16 -66 -44 -112 -111 -18
-27 -37 -51 -43 -55 -6 -4 -7 -8 -2 -8 5 0 2 -8 -6 -17 -9 -10 -28 -43 -44
-73 -15 -30 -31 -57 -35 -60 -3 -3 -10 -16 -14 -30 -4 -14 -14 -33 -23 -43
-14 -16 -14 -17 -1 -12 9 3 23 20 33 38 38 72 70 122 83 130 7 5 11 12 8 17
-3 4 2 11 11 14 8 3 12 10 9 16 -3 5 3 10 14 10 12 0 21 4 21 8 0 4 14 16 30
25 18 11 30 26 30 39 0 21 -1 21 -13 3 -10 -12 -16 -14 -21 -7 -4 7 1 23 11
37 29 39 37 33 33 -27 -1 -18 5 -30 20 -38 12 -7 19 -18 16 -26 -4 -10 2 -14
20 -14 31 0 117 21 124 30 3 3 28 21 55 40 59 39 105 80 105 93 0 6 -8 3 -18
-6 -10 -10 -25 -17 -32 -17 -18 0 -101 40 -118 57 -7 7 -18 13 -23 13 -5 0 -9
6 -9 14 0 7 -7 19 -16 27 -14 11 -11 16 23 45 21 18 36 34 33 37 -3 2 -16 -6
-30 -20z"/>
<path d="M1575 2119 c-299 -104 -461 -167 -452 -176 2 -2 35 9 73 23 110 42
155 53 176 45 17 -6 10 -13 -44 -41 -89 -48 -267 -161 -345 -220 -71 -54 -79
-70 -10 -20 87 63 170 111 184 106 8 -3 12 -2 9 2 -3 5 18 21 47 36 29 16 75
43 104 62 28 19 55 34 59 34 4 0 15 6 23 13 21 18 142 69 149 63 2 -3 16 1 31
8 14 7 34 11 44 8 11 -2 35 9 55 25 21 16 52 38 69 48 23 13 29 21 20 27 -21
14 -49 7 -192 -43z"/>
<path d="M6050 1889 c-19 -5 -52 -11 -72 -14 l-37 -6 5 -164 c3 -108 1 -178
-6 -206 -12 -44 -79 -148 -134 -209 -34 -37 -85 -101 -101 -129 -5 -9 -24 -36
-41 -61 -17 -25 -41 -64 -54 -87 -13 -24 -27 -43 -32 -43 -4 0 -8 -4 -8 -8 0
-5 26 -8 58 -8 l57 1 8 -70 c5 -38 15 -113 22 -165 13 -88 14 -90 10 -25 -2
39 -7 112 -11 163 -6 81 -5 92 9 92 16 0 19 -8 49 -129 l13 -53 24 67 c26 78
122 290 158 353 14 23 36 73 49 110 12 37 23 59 23 50 1 -10 -8 -41 -19 -70
-11 -29 -20 -59 -20 -66 0 -8 -6 -28 -14 -45 -15 -33 -53 -127 -101 -250 -14
-38 -25 -71 -22 -73 5 -5 22 34 81 186 24 63 60 157 80 207 32 83 36 101 34
180 -1 86 -1 87 -8 28 -6 -57 -7 -58 -9 -15 -3 64 -19 292 -26 375 -6 65 -5
69 9 51 14 -18 16 -18 16 -3 0 11 11 20 30 24 17 3 30 9 30 14 0 10 -1 10 -50
-2z"/>
<path d="M6663 1853 c9 -2 15 -9 12 -14 -4 -5 -1 -9 4 -9 7 0 11 -41 11 -117
0 -80 -3 -113 -10 -103 -15 24 -11 -2 5 -30 13 -23 14 -11 15 120 0 80 4 140
8 134 4 -5 25 -21 47 -34 22 -13 42 -27 45 -30 3 -3 21 -16 40 -27 19 -12 41
-31 49 -41 8 -11 19 -18 25 -16 6 2 22 -12 36 -32 14 -19 30 -41 36 -48 6 -6
21 -30 33 -52 19 -35 20 -36 14 -9 -9 38 -7 70 6 120 10 38 9 41 -22 68 -73
65 -243 128 -333 126 -21 -1 -31 -3 -21 -6z"/>
<path d="M4662 1815 c-4 -63 -22 -105 -53 -121 -17 -8 -32 -14 -33 -12 -2 2
-8 12 -15 23 -10 18 -11 16 -6 -12 13 -64 -63 -436 -136 -668 -10 -33 -21 -80
-23 -105 -3 -25 -3 -36 0 -25 3 11 18 59 35 108 16 48 29 94 29 102 0 25 52
18 72 -9 9 -13 27 -75 39 -137 20 -106 21 -133 16 -371 -4 -142 -4 -258 -1
-258 3 0 15 23 28 50 l23 50 7 -31 c3 -17 6 -69 6 -115 0 -90 7 -102 70 -118
24 -7 24 -6 -2 9 -16 9 -28 20 -28 26 0 6 -4 8 -9 4 -16 -9 -22 12 -7 24 8 7
14 33 14 69 0 52 -1 55 -14 38 -10 -15 -14 -16 -14 -5 0 18 23 69 31 69 3 0
11 -33 17 -72 l10 -73 -1 98 c-2 90 -1 98 16 95 19 -3 25 -17 89 -219 24 -76
24 -77 4 -89 -18 -11 -18 -13 -3 -22 13 -7 17 -23 17 -64 0 -46 3 -55 17 -52
9 2 23 18 32 35 9 18 19 33 23 33 4 0 23 -16 42 -35 22 -22 45 -35 61 -35 14
0 25 3 25 6 0 4 -17 27 -37 52 -86 105 -203 307 -203 348 1 18 32 64 43 64 3
0 13 -21 22 -47 8 -27 22 -57 30 -67 17 -22 20 -15 5 12 -19 34 -41 135 -32
144 10 10 62 -10 62 -24 0 -4 5 -8 11 -8 19 0 -2 43 -39 79 -19 18 -32 26 -29
17 8 -19 0 -16 -50 22 -18 13 -33 31 -33 39 0 8 4 11 10 8 6 -3 7 1 4 9 -9 23
-24 9 -24 -22 0 -17 10 -34 28 -48 24 -20 25 -23 7 -22 -11 0 -64 -3 -117 -7
l-98 -8 0 81 0 81 38 3 37 3 -2 65 -3 65 17 -35 c10 -19 21 -37 24 -40 4 -3 9
-15 13 -27 4 -13 12 -23 18 -23 7 0 7 4 0 13 -5 6 -24 54 -42 105 -32 95 -32
95 -59 446 -5 60 -7 132 -6 160 2 28 7 102 10 164 3 61 11 125 16 141 6 16 9
44 6 63 -4 33 -4 33 -5 3z"/>
<path d="M5294 1553 c-9 -16 -36 -57 -59 -93 -23 -36 -56 -92 -73 -125 -33
-65 -92 -218 -92 -238 1 -7 12 17 26 53 28 74 57 132 89 175 13 17 25 39 28
50 12 50 5 -35 -8 -95 -8 -36 -17 -121 -19 -190 l-5 -125 9 105 c10 123 16
149 38 173 15 16 15 17 -1 11 -21 -8 -21 -11 4 94 18 75 46 147 81 215 14 28
0 20 -18 -10z"/>
<path d="M4982 1044 c-2 -25 -139 -167 -153 -158 -5 3 -9 12 -9 20 0 8 -4 14
-10 14 -18 0 -11 -20 50 -144 62 -127 74 -147 103 -180 9 -11 17 -23 17 -26 0
-4 11 -20 25 -36 19 -23 25 -25 25 -11 0 9 -4 17 -8 17 -5 0 -14 12 -21 26
-10 23 -10 25 9 19 13 -4 20 -2 20 7 1 7 17 -5 36 -27 20 -22 31 -30 25 -18
-16 32 -14 38 23 64 l33 23 -29 50 c-16 28 -36 57 -44 64 -9 8 -10 8 -4 0 15
-18 12 -28 -10 -28 -14 0 -20 7 -21 23 -1 12 -3 34 -5 50 -2 18 1 25 8 21 8
-5 9 3 5 26 -4 18 -8 49 -8 69 -1 28 -4 23 -11 -24 -17 -112 17 -303 46 -256
3 4 -1 17 -9 27 -30 39 -5 62 30 28 13 -13 13 -19 3 -32 -11 -13 -10 -15 5 -9
16 6 15 2 -5 -22 -13 -17 -26 -30 -30 -30 -9 -1 -58 99 -58 118 0 13 -2 13 -9
2 -6 -9 -18 -11 -40 -6 -26 5 -32 11 -29 28 4 28 38 34 56 11 13 -18 13 -17
10 6 -2 14 -9 24 -15 23 -6 -1 -17 4 -23 12 -7 8 -19 15 -26 15 -8 0 -14 9
-14 20 0 27 -14 25 -29 -2 -10 -21 -11 -19 -7 13 2 20 -1 42 -7 49 -9 10 -9
11 2 5 9 -5 12 -3 9 6 -3 8 6 22 19 32 13 10 21 23 18 28 -5 8 7 13 26 11 4
-1 6 6 5 15 0 9 5 18 12 20 9 4 12 -20 12 -96 0 -55 3 -102 8 -104 4 -3 6 36
4 86 -3 115 -8 189 -10 161z"/>
<path d="M3448 678 c-4 -9 -4 -27 -2 -40 5 -21 4 -21 -11 5 -8 15 -23 27 -33
27 -27 0 -132 -77 -132 -96 0 -2 16 6 35 17 45 27 45 14 0 -27 -31 -28 -33
-32 -13 -27 22 4 22 4 4 -11 -11 -9 -24 -16 -29 -16 -5 0 -7 -7 -4 -14 4 -11
1 -13 -11 -9 -13 5 -12 1 6 -21 40 -51 -1 -58 -46 -7 -17 18 -21 20 -14 6 6
-11 21 -30 35 -43 14 -13 30 -43 37 -68 16 -55 29 -67 54 -48 11 8 14 14 8 14
-7 0 -12 16 -12 43 0 41 1 42 35 43 36 1 44 -12 23 -35 -11 -11 -9 -12 10 -6
12 3 22 2 22 -4 0 -5 -12 -11 -27 -13 -14 -2 -28 -8 -30 -14 -2 -7 5 -10 19
-8 13 3 34 -4 47 -14 23 -19 23 -20 6 -46 -10 -15 -15 -29 -13 -32 3 -2 13 8
23 23 15 22 20 53 23 138 2 79 0 106 -7 95 -7 -9 -11 -11 -11 -3 0 7 -16 19
-35 28 -47 23 -61 41 -45 60 7 8 22 15 33 15 19 0 19 1 4 18 -20 22 -22 42 -4
42 31 -1 56 -43 58 -103 1 -29 2 -27 8 10 8 48 -1 147 -11 121z"/>
<path d="M4969 485 c8 -11 29 -36 47 -55 71 -77 151 -210 184 -305 10 -27 23
-49 29 -48 6 2 21 -15 33 -37 26 -45 47 -52 44 -15 0 16 -6 23 -13 20 -7 -2
-13 2 -13 10 0 8 -4 15 -10 15 -5 0 -10 7 -10 15 0 8 -11 24 -24 37 -14 13
-41 58 -62 101 -20 42 -41 77 -46 77 -6 0 -7 7 -4 16 3 8 2 13 -2 10 -4 -2
-15 9 -24 25 l-17 30 32 -26 c50 -39 135 -141 180 -219 10 -17 26 -38 34 -46
22 -21 -34 82 -60 111 -12 13 -39 50 -59 81 -21 32 -50 65 -65 75 -16 9 -55
40 -88 68 -33 28 -69 57 -80 65 -19 14 -19 14 -6 -5z"/>
</g>
</svg>
